<svg width="500" height="500" viewBox="0 0 500 500" fill="none" xmlns="http://www.w3.org/2000/svg">
<rect width="500" height="500" rx="32" fill="#C6BEAC"/>
<path fill-rule="evenodd" clip-rule="evenodd" d="M186 88.61C186 73.3614 173.491 61 158.06 61H86.94C71.5092 61 59 73.3614 59 88.61V159.793C59 175.041 71.5092 187.402 86.94 187.402H158.06C173.491 187.402 186 199.764 186 215.012V284.39C186 299.638 198.509 312 213.94 312H285.06C300.49 312 313 299.638 313 284.39V213.206C313 197.958 300.49 185.597 285.06 185.597H213.94C198.509 185.597 186 173.236 186 157.987V88.61Z" fill="black"/>
<path fill-rule="evenodd" clip-rule="evenodd" d="M313 214.11C313 198.861 300.491 186.5 285.06 186.5H213.94C198.509 186.5 186 198.861 186 214.11V285.293C186 300.541 198.509 312.902 213.94 312.902H285.06C300.491 312.902 313 325.264 313 340.512V409.89C313 425.138 325.509 437.5 340.94 437.5H412.06C427.49 437.5 440 425.138 440 409.89V338.706C440 323.458 427.49 311.097 412.06 311.097H340.94C325.509 311.097 313 298.736 313 283.487V214.11Z" fill="black"/>
<path d="M380.614 338.273V411H371.807V338.273H380.614Z" fill="white"/>
<path d="M229.807 286V213.273H238.614V278.188H272.42V286H229.807Z" fill="white"/>
<path d="M100.79 161H91.5568L118.261 88.2727H127.352L154.057 161H144.824L123.091 99.7784H122.523L100.79 161ZM104.199 132.591H141.415V140.403H104.199V132.591Z" fill="white"/>
</svg>
